<svg xmlns="http://www.w3.org/2000/svg" version="1.1" xmlns:xlink="http://www.w3.org/1999/xlink" xmlns:svgjs="http://svgjs.dev/svgjs" width="100%" height="100%" viewBox="0 0 1000 600"><rect width="1000" height="600" x="0" y="0" fill="#533549"/><g><rect width="333.3333333333333" height="333.3333333333333" rx="13.333333333333334" ry="13.333333333333334" y="248.1162293239032" fill="#f6b042" transform="matrix(0.5533568110720454,0,0,0.5533568110720454,0,70.47704087199857)" x="225.89413452148435"/><path d="M341.3237880708834 489.78289620391394L341.3237880708834 489.78289620391394Q341.3237880708834 486.6979848189186 341.5375938104375 484.3766653609024Q341.78194322707077 482.0858895799653 342.4233604457332 480.3143563093739L342.4233604457332 480.3143563093739Q348.3793774761696 479.88674483026557 351.6780946007191 478.2373862679909Q354.97681172526853 476.5880277057162 356.29018983967245 472.49517497710855Q357.60356795407637 468.43286592558013 357.60356795407637 461.1940144578188L357.60356795407637 461.1940144578188L357.60356795407637 368.37177981424713Q357.60356795407637 360.8885789298526 356.29018983967245 356.94844458664073Q354.97681172526853 352.97776656634977 351.6780946007191 351.23677697283756Q348.3793774761696 349.46524370224625 342.4233604457332 349.2514379626921L342.4233604457332 349.2514379626921Q341.78194322707077 347.4799046921007 341.5375938104375 345.06695420284694Q341.3237880708834 342.6540037135932 341.3237880708834 339.78289806815206L341.3237880708834 339.78289806815206Q345.0806603516202 339.9967038077062 349.6927555905736 340.1188785160228Q354.30485082952697 340.24105322433945 359.46673225590524 340.3326842555769Q364.6286136822835 340.45485896389357 369.4850583378702 340.45485896389357Q374.3109593163777 340.45485896389357 378.28163733666867 340.45485896389357L378.28163733666867 340.45485896389357L378.28163733666867 456.79572495841956Q378.28163733666867 466.2337211758804 380.2669763468142 471.1817968627046Q382.22177167988053 476.1298725495287 386.6200611792798 477.9930368513576Q391.01835067867904 479.88674483026557 397.86013434441116 480.3143563093739L397.86013434441116 480.3143563093739Q398.5015515630736 482.0858895799653 398.71535730262775 484.3766653609024Q398.959706719261 486.6979848189186 398.959706719261 489.78289620391394L398.959706719261 489.78289620391394Q395.66098959471157 489.53854678728067 391.14052538699565 489.44691575604315Q386.6200611792798 489.32474104772655 381.5803544612182 489.23311001648904Q376.5101040660773 489.1109353081724 371.2260479313824 489.1109353081724L371.2260479313824 489.1109353081724Q363.5290413074337 489.1109353081724 354.64083127739775 489.23311001648904Q345.7220775702826 489.32474104772655 341.3237880708834 489.78289620391394ZM428.4038114235727 444.0284679393301L428.4038114235727 444.0284679393301Q425.5632494552106 444.0284679393301 423.1502989659569 443.81466219977597Q420.70680479962397 443.60085646022185 418.2938543103702 442.9288955644803L418.2938543103702 442.9288955644803Q417.40808767507457 431.5055603368739 412.24620624869624 427.41270760826626Q407.08432482231797 423.3503985567378 393.46184484501197 423.3503985567378L393.46184484501197 423.3503985567378L377.60967644092716 423.3503985567378L377.60967644092716 413.91240233927687L393.46184484501197 413.91240233927687Q407.08432482231797 413.91240233927687 412.3683809570129 410.36933579809414Q417.65243709170784 406.85681293399057 417.86624283126196 396.0748949250466L417.86624283126196 396.0748949250466Q420.70680479962397 395.2196719668301 423.1502989659569 394.88369151895927Q425.5632494552106 394.54771107108854 428.4038114235727 394.54771107108854L428.4038114235727 394.54771107108854Q428.1900056840185 400.0455729453376 428.09837465278105 406.42920145488233Q427.9761999444644 412.81282996442707 427.9761999444644 418.52449757823024L427.9761999444644 418.52449757823024Q427.9761999444644 424.23616519203347 428.09837465278105 431.2612109202406Q428.1900056840185 438.3168003255269 428.4038114235727 444.0284679393301ZM433.90167329782173 377.16835881304564L433.90167329782173 377.16835881304564Q433.47406181871344 370.35711882439267 430.38915043371816 363.9734903148479Q427.3042390487228 357.58986180530314 419.7294071330908 353.4359217225372Q412.1545752174587 349.2514379626921 397.86013434441116 349.2514379626921L397.86013434441116 349.2514379626921L372.78377546241967 349.2514379626921L377.60967644092716 340.45485896389357Q394.98902869897 340.45485896389357 407.42030527018875 340.3326842555769Q419.85158184140744 340.24105322433945 427.76239420491027 339.9967038077062Q435.6732065684131 339.78289806815206 439.18572943251667 339.78289806815206L439.18572943251667 339.78289806815206Q439.64388458870405 344.6393427237387 440.28530180736647 350.9924275562043Q440.95726270310803 357.376056065749 441.8430293384037 363.54587883573964Q442.6982522966202 369.6851579286511 443.79782467147004 374.54160258423775L443.79782467147004 374.54160258423775Q442.0568350779578 376.06878643819584 439.5217098803874 376.61857262562074Q436.986584682817 377.16835881304564 433.90167329782173 377.16835881304564Z " fill="#533549" transform="matrix(0.5533568110720454,0,0,0.5533568110720454,0,70.47704087199857)"/><path d="M642.5608066804411 488.31374472451023L642.5608066804411 488.31374472451023Q642.5608066804411 485.3460661555903 642.7664873733366 483.1129614898683Q643.0015510223599 480.9092397802743 643.6185931010463 479.2050283248549L643.6185931010463 479.2050283248549Q649.3482695459908 478.793666939064 652.5216288078061 477.20698730815633Q655.6949880696214 475.62030767724866 656.958455183122 471.6829915561073Q658.2219222966227 467.7750583910939 658.2219222966227 460.81129778877676L658.2219222966227 460.81129778877676L658.2219222966227 371.5164941160268Q658.2219222966227 364.31766986468637 656.958455183122 360.5272685241846Q655.6949880696214 356.70748422755497 652.5216288078061 355.0326557282635Q649.3482695459908 353.32844427284414 643.6185931010463 353.12276357994864L643.6185931010463 353.12276357994864Q643.0015510223599 351.4185521245293 642.7664873733366 349.0972985904236Q642.5608066804411 346.77604505631786 642.5608066804411 344.01404718029335L642.5608066804411 344.01404718029335Q646.1749102841753 344.2197278731888 650.6117366594913 344.33725969770046Q655.0485630348072 344.45479152221213 660.0142826204259 344.5429403905959Q664.9800022060443 344.66047221510763 669.6518922303836 344.66047221510763Q674.2943992985951 344.66047221510763 678.1141835952247 344.66047221510763L678.1141835952247 344.66047221510763L678.1141835952247 456.58015210635625Q678.1141835952247 465.65948554988364 680.0240757435396 470.41952444260676Q681.9045849357265 475.1795633353298 686.135730618147 476.9719236591329Q690.3668763005675 478.793666939064 696.9486584732217 479.2050283248549L696.9486584732217 479.2050283248549Q697.565700551908 480.9092397802743 697.7713812448035 483.1129614898683Q698.0064448938268 485.3460661555903 698.0064448938268 488.31374472451023L698.0064448938268 488.31374472451023Q694.8330856320114 488.0786810754869 690.4844081250792 487.9905322071031Q686.135730618147 487.8730003825914 681.2875428570402 487.7848515142076Q676.4099721398053 487.667319689696 671.3267207296751 487.667319689696L671.3267207296751 487.667319689696Q663.9222157854392 487.667319689696 655.3717755522144 487.7848515142076Q646.7919523628617 487.8730003825914 642.5608066804411 488.31374472451023ZM726.3316146011421 444.2980764448855L726.3316146011421 444.2980764448855Q723.5989996812455 444.2980764448855 721.2777461471397 444.09239575199007Q718.927109656906 443.8867150590946 716.6058561228004 443.2402900242804L716.6058561228004 443.2402900242804Q715.7537503950907 432.25106443243817 710.7880308094722 428.3137483112969Q705.8223112238536 424.40581514628343 692.7175127908012 424.40581514628343L692.7175127908012 424.40581514628343L677.4677585604105 424.40581514628343L677.4677585604105 415.32648170275604L692.7175127908012 415.32648170275604Q705.8223112238536 415.32648170275604 710.9055626339839 411.9180587919173Q715.9888140441141 408.53901883720647 716.1944947370094 398.16683532405057L716.1944947370094 398.16683532405057Q718.927109656906 397.3441125524688 721.2777461471397 397.0209000350617Q723.5989996812455 396.6976875176546 726.3316146011421 396.6976875176546L726.3316146011421 396.6976875176546Q726.1259339082466 401.98661962068024 726.0377850398628 408.1276574514156Q725.9202532153512 414.26869528215093 725.9202532153512 419.76330807807204L725.9202532153512 419.76330807807204Q725.9202532153512 425.25792087399316 726.0377850398628 432.0160007834148Q726.1259339082466 438.80346364896445 726.3316146011421 444.2980764448855ZM731.6205467041677 379.9787854808679L731.6205467041677 379.9787854808679Q731.2091853183769 373.4263862643416 728.2415067494569 367.2853484336063Q725.273828180537 361.1443106028709 717.9868550608127 357.14822856947376Q710.6998819410884 353.12276357994864 696.9486584732217 353.12276357994864L696.9486584732217 353.12276357994864L672.8252514921991 353.12276357994864L677.4677585604105 344.66047221510763Q694.1866605971971 344.66047221510763 706.1455237412607 344.5429403905959Q718.1043868853243 344.45479152221213 725.7145725224557 344.2197278731888Q733.3247581595871 344.01404718029335 736.7037981142979 344.01404718029335L736.7037981142979 344.01404718029335Q737.1445424562168 348.6859372046327 737.7615845349031 354.79759207924013Q738.4080095697174 360.9386299099755 739.260115297427 366.87398704781543Q740.0828380690087 372.7799612295274 741.1406244896139 377.4518512538667L741.1406244896139 377.4518512538667Q739.4657959903225 378.9209990602627 737.027010631705 379.44989227056533Q734.5882252730877 379.9787854808679 731.6205467041677 379.9787854808679ZM821.9731367975228 489.5772118380108L821.9731367975228 489.5772118380108Q819.6518832634171 488.51942541740567 818.2708843254048 485.75742754138116Q816.8898853873926 483.02481262148456 816.8898853873926 477.08945548364466L816.8898853873926 477.08945548364466Q816.8898853873926 475.1795633353298 817.095566080288 472.535097283817Q817.3012467731835 469.89063123230414 817.9476718079977 467.7750583910939L817.9476718079977 467.7750583910939L818.3590331937886 467.7750583910939Q817.7419911151022 471.15409834580475 815.5088864493803 475.09141446694605Q813.3051647397863 478.9993476319595 809.6910611360521 481.96702620087945L809.6910611360521 481.96702620087945Q806.1063404884458 485.1403854626948 800.6117276925247 487.1384264793934Q795.0877319404757 489.136467496092 787.2718656104488 489.136467496092L787.2718656104488 489.136467496092Q773.932003528373 489.136467496092 766.968242926056 483.1129614898683Q759.9750993676108 477.08945548364466 759.9750993676108 466.71727197048875L759.9750993676108 466.71727197048875Q759.9750993676108 458.46066129854313 763.8830325326243 452.6428359852149Q767.8203486537656 446.8250106718867 774.0495353528847 442.9170775068733Q780.2787220520038 439.00914434185984 787.595078127856 436.6878908077542Q794.8820512475802 434.36663727364845 801.8751948060252 433.07378720401994Q808.8389554083424 431.8103200905194 814.127887511368 430.9582143628097L814.127887511368 430.9582143628097Q814.127887511368 422.2902423050732 813.8340579500889 417.4420545439663Q813.5108454326818 412.56448382673153 812.5412078804603 409.71433708232325Q811.6009532843669 406.864190337915 809.6910611360521 404.7486174967047L809.6910611360521 404.7486174967047Q807.1641269090509 401.57525823488936 803.8732358227238 399.98857860398164Q800.6117276925247 398.4018989730739 796.5862627029996 398.4018989730739L796.5862627029996 398.4018989730739Q789.5931191445546 398.4018989730739 785.5676541550295 402.72119352387824Q781.5715721216324 407.0698710308104 779.8673606662129 412.770164519627Q778.1631492107936 418.4998409645715 777.9574685178981 422.93666733988744L777.9574685178981 422.93666733988744Q775.6362149837925 422.93666733988744 772.1396432045699 422.6134548224803Q768.6430714253473 422.2902423050732 766.968242926056 421.4381365773635L766.968242926056 421.4381365773635Q767.3796043118467 416.1492044743378 767.1739236189513 409.5968052578116Q766.968242926056 403.04440604128536 765.9104565054507 398.4018989730739L765.9104565054507 398.4018989730739Q774.5784285631872 393.93568964163006 784.2160381731452 391.4087554146289Q793.8242648269751 388.88182118762774 801.8751948060252 388.88182118762774L801.8751948060252 388.88182118762774Q809.6910611360521 388.88182118762774 815.3032057564849 391.0855428972218Q820.9153503769177 393.31864756294374 824.2943903316285 396.90336821055L824.2943903316285 396.90336821055Q829.7890031275496 402.19230031357563 831.493214582969 410.77212350292837Q833.1680430822605 419.3225637361532 833.1680430822605 433.5145315459388L833.1680430822605 433.5145315459388L833.1680430822605 456.7858327992517Q833.1680430822605 462.69180698096363 834.1376806344819 466.1883787601862Q835.0779352305752 469.6849505394087 837.8399331065998 471.27163017031637Q840.5725480264964 472.8583098012241 846.3022244714408 473.269671187015L846.3022244714408 473.269671187015Q846.3022244714408 475.38524402822526 846.0965437785454 478.0297100797381Q845.861480129522 480.67417613125093 845.0387573579402 483.02481262148456L845.0387573579402 483.02481262148456Q839.7498252549146 483.23049331438 833.2855749067721 485.02285363818316Q826.8213245586296 486.8152139619863 821.9731367975228 489.5772118380108ZM793.2072227482887 477.50081686943554L793.2072227482887 477.50081686943554Q797.8497298165001 477.50081686943554 802.7273005337349 474.4449894321318Q807.5754882948419 471.3891619948281 810.8663793811689 464.8073798221739Q814.127887511368 458.2549806056477 814.127887511368 447.67711639959634L814.127887511368 447.67711639959634L814.127887511368 439.65556937667407Q808.8389554083424 440.27261145536045 802.9329812266304 441.44792970047723Q796.9976240887905 442.5938649894661 791.9143726786602 444.9445014796998Q786.860504224658 447.26575501380546 783.6871449628426 451.37936887171435Q780.5137857010271 455.5223656857511 780.5137857010271 462.48612628806825L780.5137857010271 462.48612628806825Q780.5137857010271 470.331375574223 784.304187041529 473.9160962218292Q788.1239713381585 477.50081686943554 793.2072227482887 477.50081686943554ZM906.1553061040146 489.5772118380108L906.1553061040146 489.5772118380108Q904.4804776047232 485.3460661555903 900.9839058255006 477.20698730815633Q897.4873340462781 469.0385255045944 893.1680394954737 459.1070863333574Q888.8193619885416 449.1756471621203 884.4706844816094 439.53803755216245Q880.1513899308051 429.90042794220454 876.860498844478 422.6134548224803Q873.5989907142789 415.32648170275604 872.3061406446503 412.56448382673153L872.3061406446503 412.56448382673153Q869.5735257247538 406.864190337915 867.6636335764389 404.2197242864022Q865.7537414281242 401.57525823488936 863.961381104321 400.5174718142842Q862.1690207805178 399.4596853936791 859.2013422115979 399.2246217446557L859.2013422115979 399.2246217446557Q858.3492364838881 396.49200682475913 858.1435557909928 394.78779536933973Q857.9378750980973 393.11296687004824 857.9378750980973 390.14528830112835L857.9378750980973 390.14528830112835Q862.3747014734132 390.3509689940238 867.9868460938461 390.55664968691923Q873.5989907142789 390.76233037981467 880.1513899308051 390.76233037981467L880.1513899308051 390.76233037981467Q884.5882163061211 390.76233037981467 889.3482551988442 390.6741815114309Q894.1082940915672 390.55664968691923 898.4569715984995 390.46850081853546Q902.7762661493038 390.3509689940238 906.1553061040146 390.14528830112835L906.1553061040146 390.14528830112835Q906.1553061040146 392.466541835234 905.7439447182237 394.69964650095596Q905.3325833324328 396.90336821055 904.6861582976186 398.8132603588648L904.6861582976186 398.8132603588648Q894.1082940915672 399.6653660865745 892.1984019432524 402.19230031357563Q890.2885097949376 404.7486174967047 894.3139747844627 413.4165895544412L894.3139747844627 413.4165895544412Q895.8125055469867 416.58994881625665 898.5451204668833 423.0248162082712Q901.3071183429078 429.48906655641366 904.6861582976186 437.7456772283593Q908.0651982523294 446.0022879003049 911.4442382070403 454.34704744063424Q914.852661117879 462.69180698096363 917.3795953448802 469.47926984651326L917.3795953448802 469.47926984651326L915.0583418107744 469.47926984651326Q920.5529546066956 455.7280463786465 924.9897809820117 444.7094378306764Q929.4266073573275 433.72021223883416 933.2463916539572 424.200134453388L933.2463916539572 424.200134453388Q938.7410044498782 410.44891098552125 936.5372827402842 405.04244705798396Q934.3041780745623 399.6653660865745 926.253248095512 399.01894105176024L926.253248095512 399.01894105176024Q925.195461674907 396.90336821055 924.5784195962207 394.5821146764443Q923.9319945614064 392.26086114233857 923.9319945614064 390.14528830112835L923.9319945614064 390.14528830112835Q928.1631402438269 390.3509689940238 933.4520723468526 390.55664968691923Q938.7410044498782 390.76233037981467 943.618575167113 390.76233037981467L943.618575167113 390.76233037981467Q948.46676292822 390.76233037981467 953.9907586802689 390.55664968691923Q959.48537147619 390.3509689940238 963.2757728166918 390.14528830112835L963.2757728166918 390.14528830112835Q963.2757728166918 392.8779032210249 962.8644114309009 395.11100788674685Q962.45305004511 397.3441125524688 961.3952636245049 399.2246217446557L961.3952636245049 399.2246217446557Q957.9868407136661 399.87104677946996 955.4599064866649 402.19230031357563Q952.9329722596639 404.51355384768135 950.4941869010464 409.1854438720207Q948.055401542429 413.8279509402321 944.4706808948227 422.2902423050732L944.4706808948227 422.2902423050732L915.9104475384842 487.667319689696Q914.0005553901693 488.51942541740567 911.3560893386565 489.0483186277082Q908.7116232871437 489.5772118380108 906.1553061040146 489.5772118380108ZM974.294381364662 488.31374472451023L974.294381364662 488.31374472451023Q974.294381364662 486.19817188329995 974.5000620575573 483.75938652468255Q974.7057427504527 481.3206011660652 975.352167785267 479.2050283248549L975.352167785267 479.2050283248549Q983.8144591501081 479.2050283248549 986.8702865874119 475.2970951598415Q989.9554969808435 471.3891619948281 989.9554969808435 460.81129778877676L989.9554969808435 460.81129778877676L989.9554969808435 418.9112023503624Q989.9554969808435 413.8279509402321 988.9858594286221 410.566442810033Q988.0456048325286 407.27555172370586 984.6665648778177 405.5713402682865Q981.258141966979 403.896511768995 974.0887006717664 403.896511768995L974.0887006717664 403.896511768995Q974.0887006717664 401.57525823488936 974.5000620575573 399.6653660865745Q974.9114234433482 397.7554739382597 975.9692098639533 396.0512624828403L975.9692098639533 396.0512624828403Q979.1425691257688 396.0512624828403 984.9603944390971 394.9934760622352Q990.7782197524252 393.93568964163006 996.3022155044742 392.26086114233857Q1001.7968283003953 390.55664968691923 1004.3237625273965 388.88182118762774L1004.3237625273965 388.88182118762774Q1006.2336546757114 389.49886326631406 1007.6146536137236 391.4087554146289Q1008.9956525517358 393.31864756294374 1008.9956525517358 397.3441125524688L1008.9956525517358 397.3441125524688L1008.9956525517358 460.81129778877676Q1008.9956525517358 471.3891619948281 1011.845799296144 475.2970951598415Q1014.6959460405525 479.2050283248549 1021.454025949974 479.2050283248549L1021.454025949974 479.2050283248549Q1022.1004509847883 481.3206011660652 1022.3061316776838 484.08259904208967Q1022.5118123705792 486.8152139619863 1022.5118123705792 488.31374472451023L1022.5118123705792 488.31374472451023Q1018.9270917229729 488.0786810754869 1014.9016267334479 487.9905322071031Q1010.8761617439228 487.8730003825914 1006.762547886014 487.7848515142076Q1002.648934028105 487.667319689696 998.62346903858 487.667319689696L998.62346903858 487.667319689696Q994.5980040490549 487.667319689696 990.2493265421227 487.7848515142076Q985.9300319913184 487.8730003825914 981.9045670017932 487.9905322071031Q977.8791020122682 488.0786810754869 974.294381364662 488.31374472451023ZM997.7713633108702 364.9640948995006L997.7713633108702 364.9640948995006Q992.4824312078446 364.9640948995006 988.8977105602384 361.37937425189426Q985.2836069565041 357.7652706481601 985.2836069565041 352.68201923802985L985.2836069565041 352.68201923802985Q985.2836069565041 346.9817257492133 989.1033912531337 343.397005101607Q992.8937925936356 339.78290149787284 997.7713633108702 339.78290149787284L997.7713633108702 339.78290149787284Q1003.4716567996868 339.78290149787284 1006.9682285789094 343.397005101607Q1010.4648003581319 346.9817257492133 1010.4648003581319 352.68201923802985L1010.4648003581319 352.68201923802985Q1010.4648003581319 357.55958995526464 1006.762547886014 361.2618424273826Q1003.0602954138959 364.9640948995006 997.7713633108702 364.9640948995006ZM1117.3012288392501 471.15409834580475L1117.3012288392501 471.15409834580475Q1111.6009353504337 480.26281474546 1103.1386439855928 484.90532181367143Q1094.6763526207515 489.5772118380108 1082.5999576521763 489.5772118380108L1082.5999576521763 489.5772118380108Q1071.8164127532295 489.5772118380108 1061.7674417574808 483.965067217578Q1051.718470761732 478.3529225971452 1045.1660715452058 467.2461651807913Q1038.6136723286795 456.1394077644374 1038.6136723286795 439.65556937667407L1038.6136723286795 439.65556937667407Q1038.6136723286795 426.9621323294125 1043.667540782682 415.32648170275604Q1048.7507921928122 403.6908310760996 1058.5940824956656 396.2863261318637Q1068.437372798519 388.88182118762774 1082.5999576521763 388.88182118762774L1082.5999576521763 388.88182118762774Q1092.3257161305178 388.88182118762774 1100.4941779340797 391.20307472173346Q1108.6332567815139 393.5243282558391 1114.5392309632257 398.4018989730739L1114.5392309632257 398.4018989730739Q1113.7165081916442 404.51355384768135 1113.393295674237 410.44891098552125Q1113.0700831568297 416.38426812336115 1113.0700831568297 422.4959229979686L1113.0700831568297 422.4959229979686Q1111.3658717014105 423.3480287256783 1108.515724957002 423.7887730675971Q1105.6655782125936 424.200134453388 1103.3443246784882 424.200134453388L1103.3443246784882 424.200134453388Q1102.0808575649876 411.9180587919173 1096.145500427148 405.3656595753911Q1090.2101432893078 398.8132603588648 1080.925129152885 398.8132603588648L1080.925129152885 398.8132603588648Q1070.552945639729 398.8132603588648 1064.4119078089939 408.53901883720647Q1058.2708699782584 418.2647773155481 1058.2708699782584 436.48221011485873L1058.2708699782584 436.48221011485873Q1058.2708699782584 447.06007432091 1061.7674417574808 456.4626202818446Q1065.2640135367033 465.8651662427791 1072.022093446125 471.6829915561073Q1078.8095563116744 477.50081686943554 1088.5353147900164 477.50081686943554L1088.5353147900164 477.50081686943554Q1095.293394699438 477.50081686943554 1101.3169007056617 474.3274576076201Q1107.3697896680133 471.15409834580475 1112.0122967362245 465.24812416409276L1112.0122967362245 465.24812416409276Q1113.7165081916442 466.1002298918024 1115.1856559980401 467.68690952271015Q1116.6548038044361 469.2735891536178 1117.3012288392501 471.15409834580475ZM1180.9740947684536 489.5772118380108L1180.9740947684536 489.5772118380108Q1166.6058292219004 489.5772118380108 1155.7929013668258 483.31864218276377Q1145.0093564678791 477.08945548364466 1139.1033822861673 465.7770173743953Q1133.1680251483272 454.46457926514597 1133.1680251483272 439.21482503475534L1133.1680251483272 439.21482503475534Q1133.1680251483272 424.8465594882023 1139.3090629790627 413.4165895544412Q1145.4501008097982 401.98661962068024 1156.233645708745 395.43422040415396Q1167.0171906076916 388.88182118762774 1180.9740947684536 388.88182118762774L1180.9740947684536 388.88182118762774Q1195.9887853498212 388.88182118762774 1206.684181380384 395.2285397112585Q1217.3795774109471 401.57525823488936 1223.0798708997636 412.88769634413865Q1228.78016438858 424.200134453388 1228.78016438858 439.21482503475534L1228.78016438858 439.21482503475534Q1228.78016438858 453.61247353743624 1222.7566583823564 465.0424434711973Q1216.7331523761327 476.4430304488304 1206.03775634557 483.02481262148456Q1195.3717432711346 489.5772118380108 1180.9740947684536 489.5772118380108ZM1182.6783062238733 479.4107090177504L1182.6783062238733 479.4107090177504Q1195.3717432711346 479.4107090177504 1201.5127811018701 468.9503766362107Q1207.6244359764773 458.46066129854313 1207.6244359764773 441.7711422178844L1207.6244359764773 441.7711422178844Q1207.6244359764773 428.636960828704 1203.7165028114641 419.028734174874Q1199.8085696464505 409.39112456491614 1193.2561704299242 404.2197242864022Q1186.7037712133983 399.01894105176024 1178.8585219272436 399.01894105176024L1178.8585219272436 399.01894105176024Q1166.6058292219004 399.01894105176024 1160.552940259549 408.97976317912526Q1154.5294342533252 418.9112023503624 1154.5294342533252 434.77799865943933L1154.5294342533252 434.77799865943933Q1154.5294342533252 448.94058351309695 1158.0260060325481 458.9895545088457Q1161.5225778117706 469.0385255045944 1167.8692963354015 474.2393087392364Q1174.216014859032 479.4107090177504 1182.6783062238733 479.4107090177504ZM1279.7889762266495 398.16683532405057L1260.7488206557573 442.3881842965707L1260.7488206557573 418.9112023503624Q1260.7488206557573 413.8279509402321 1259.691034235152 410.65459167841675Q1258.6332478145468 407.4812324166013 1255.2248249037084 405.80640391730986Q1251.8457849489973 404.10219246189047 1244.8820243466807 403.896511768995L1244.8820243466807 403.896511768995Q1244.8820243466807 401.57525823488936 1245.2933857324715 399.6653660865745Q1245.7047471182623 397.7554739382597 1246.7625335388675 396.0512624828403L1246.7625335388675 396.0512624828403Q1253.3443157115216 395.6399010970494 1261.8066070763625 393.5243282558391Q1270.2688984412034 391.4087554146289 1275.1170862023105 388.88182118762774L1275.1170862023105 388.88182118762774Q1277.026978350625 389.49886326631406 1278.4079772886375 391.5262872391406Q1279.7889762266495 393.5243282558391 1279.7889762266495 398.16683532405057L1279.7889762266495 398.16683532405057ZM1342.4040557352482 424.40581514628343L1342.4040557352482 460.81129778877676Q1342.4040557352482 471.800523380619 1345.4598831725516 475.50277585273693Q1348.5450935659833 479.2050283248549 1354.8918120896142 479.2050283248549L1354.8918120896142 479.2050283248549Q1355.5088541683003 481.1149204731697 1355.7145348611962 483.23049331438Q1355.9495985102194 485.3460661555903 1355.9495985102194 488.31374472451023L1355.9495985102194 488.31374472451023Q1351.2777084858799 487.8730003825914 1345.371734304168 487.7848515142076Q1339.436377166328 487.667319689696 1332.8839779498016 487.667319689696L1332.8839779498016 487.667319689696Q1328.6528322673812 487.667319689696 1323.9809422430421 487.7848515142076Q1319.3384351748305 487.8730003825914 1315.2248213169219 487.9905322071031Q1311.081824502885 488.0786810754869 1307.702784548174 488.31374472451023L1307.702784548174 488.31374472451023Q1307.702784548174 485.3460661555903 1307.9084652410693 483.1129614898683Q1308.1141459339651 480.9092397802743 1308.7605709687791 479.2050283248549L1308.7605709687791 479.2050283248549Q1316.3707566059106 479.2050283248549 1319.867328385133 475.2970951598415Q1323.3639001643555 471.3891619948281 1323.3639001643555 460.81129778877676L1323.3639001643555 460.81129778877676L1323.3639001643555 428.636960828704Q1323.3639001643555 413.6222702473367 1317.8692873684345 408.2158063197993Q1312.3452916163856 402.8387253483899 1303.6773195586488 402.8387253483899L1303.6773195586488 402.8387253483899Q1298.1827067627278 402.8387253483899 1292.6880939668067 406.3352971276124Q1287.1934811708857 409.802485950707 1283.4912286987678 417.5302034123501Q1279.7889762266495 425.25792087399316 1279.7889762266495 438.15703861415017L1279.7889762266495 438.15703861415017L1279.7889762266495 460.81129778877676Q1279.7889762266495 471.3891619948281 1282.9623354884652 475.2970951598415Q1286.1356947502804 479.2050283248549 1294.362922466098 479.2050283248549L1294.362922466098 479.2050283248549Q1295.0093475009126 481.1149204731697 1295.215028193808 483.23049331438Q1295.4207088867033 485.3460661555903 1295.4207088867033 488.31374472451023L1295.4207088867033 488.31374472451023Q1292.4824132739113 488.0786810754869 1288.251267591491 487.9905322071031Q1284.0201219090704 487.8730003825914 1279.348231884731 487.7848515142076Q1274.7057248165197 487.667319689696 1270.2688984412034 487.667319689696L1270.2688984412034 487.667319689696Q1266.037752758783 487.667319689696 1261.3658627344435 487.7848515142076Q1256.7233556662322 487.8730003825914 1252.4922099838118 487.9905322071031Q1248.2610643013913 488.0786810754869 1245.0877050395761 488.31374472451023L1245.0877050395761 488.31374472451023Q1245.0877050395761 485.3460661555903 1245.2933857324715 483.1129614898683Q1245.499066425367 480.9092397802743 1246.145491460181 479.2050283248549L1246.145491460181 479.2050283248549Q1254.4021021321264 479.2050283248549 1257.575461393942 475.2970951598415Q1260.7488206557573 471.3891619948281 1260.7488206557573 460.81129778877676L1260.7488206557573 460.81129778877676L1260.7488206557573 418.9112023503624L1279.7889762266495 398.16683532405057Q1279.7889762266495 400.72315250717963 1279.5539125776263 403.896511768995Q1279.348231884731 407.0698710308104 1278.2904454641257 410.65459167841675L1278.2904454641257 410.65459167841675Q1278.9368704989402 409.5968052578116 1279.5539125776263 408.2158063197993Q1280.2003376124408 406.864190337915 1281.4638047259414 405.15997888249564L1281.4638047259414 405.15997888249564Q1285.0779083296752 400.28240816526085 1293.011306484214 395.11100788674685Q1300.9447046387522 389.9396076082329 1312.1396109234902 389.9396076082329L1312.1396109234902 389.9396076082329Q1320.1905409025403 389.9396076082329 1327.0661526364738 393.201115738432Q1333.9417643704069 396.49200682475913 1338.1729100528278 403.9846606373788Q1342.4040557352482 411.5066974061264 1342.4040557352482 424.40581514628343L1342.4040557352482 424.40581514628343ZM1388.0945525141642 489.7828925309062L1388.0945525141642 489.7828925309062Q1381.3364726047425 489.7828925309062 1377.5166883081129 485.96310823427655Q1373.6969040114832 482.17270689377483 1373.6969040114832 476.23734975593493L1373.6969040114832 476.23734975593493Q1373.6969040114832 470.331375574223 1378.0455815184155 466.1002298918024Q1382.3942590253478 461.86908420938187 1389.1523389347694 461.86908420938187L1389.1523389347694 461.86908420938187Q1395.7047381512957 461.86908420938187 1399.4069906234135 466.1883787601862Q1403.1092430955314 470.5370562671184 1403.1092430955314 474.9738826424344L1403.1092430955314 474.9738826424344Q1403.1092430955314 482.58406827956577 1398.5548848957037 486.19817188329995Q1394.0299096520039 489.7828925309062 1388.0945525141642 489.7828925309062ZM1421.2972929387142 488.31374472451023L1421.2972929387142 488.31374472451023Q1421.2972929387142 486.19817188329995 1421.5323565877375 483.75938652468255Q1421.7380372806329 481.3206011660652 1422.3550793593195 479.2050283248549L1422.3550793593195 479.2050283248549Q1430.8173707241604 479.2050283248549 1433.902581117592 475.2970951598415Q1436.9584085548959 471.3891619948281 1436.9584085548959 460.81129778877676L1436.9584085548959 460.81129778877676L1436.9584085548959 418.9112023503624Q1436.9584085548959 413.8279509402321 1436.0181539588025 410.566442810033Q1435.0485164065808 407.27555172370586 1431.6694764518697 405.5713402682865Q1428.2904364971591 403.896511768995 1421.0916122458189 403.896511768995L1421.0916122458189 403.896511768995Q1421.0916122458189 401.57525823488936 1421.5323565877375 399.6653660865745Q1421.9437179735282 397.7554739382597 1423.0015043941335 396.0512624828403L1423.0015043941335 396.0512624828403Q1426.1748636559491 396.0512624828403 1431.992688969277 394.9934760622352Q1437.8105142826053 393.93568964163006 1443.3051270785268 392.26086114233857Q1448.7997398744478 390.55664968691923 1451.356057057577 388.88182118762774L1451.356057057577 388.88182118762774Q1453.2659492058915 389.49886326631406 1454.6175651877757 391.4087554146289Q1455.998564125788 393.31864756294374 1455.998564125788 397.3441125524688L1455.998564125788 397.3441125524688L1455.998564125788 460.81129778877676Q1455.998564125788 471.3891619948281 1458.848710870196 475.2970951598415Q1461.7282405707324 479.2050283248549 1468.486320480154 479.2050283248549L1468.486320480154 479.2050283248549Q1469.1327455149685 481.3206011660652 1469.338426207864 484.08259904208967Q1469.5441069007593 486.8152139619863 1469.5441069007593 488.31374472451023L1469.5441069007593 488.31374472451023Q1465.9593862531533 488.0786810754869 1461.9339212636278 487.9905322071031Q1457.9084562741027 487.8730003825914 1453.7948424161941 487.7848515142076Q1449.6518456021572 487.667319689696 1445.6263806126321 487.667319689696L1445.6263806126321 487.667319689696Q1441.630298579235 487.667319689696 1437.2816210723026 487.7848515142076Q1432.9329435653708 487.8730003825914 1428.9368615319736 487.9905322071031Q1424.9113965424485 488.0786810754869 1421.2972929387142 488.31374472451023ZM1444.8036578410506 364.9640948995006L1444.8036578410506 364.9640948995006Q1439.514725738025 364.9640948995006 1435.9006221342906 361.37937425189426Q1432.3159014866842 357.7652706481601 1432.3159014866842 352.68201923802985L1432.3159014866842 352.68201923802985Q1432.3159014866842 346.9817257492133 1436.106302827186 343.397005101607Q1439.9260871238157 339.78290149787284 1444.8036578410506 339.78290149787284L1444.8036578410506 339.78290149787284Q1450.503951329867 339.78290149787284 1454.0005231090895 343.397005101607Q1457.497094888312 346.9817257492133 1457.497094888312 352.68201923802985L1457.497094888312 352.68201923802985Q1457.497094888312 357.55958995526464 1453.7948424161941 361.2618424273826Q1450.0925899440763 364.9640948995006 1444.8036578410506 364.9640948995006ZM1533.4226535228586 489.5772118380108L1533.4226535228586 489.5772118380108Q1519.054387976305 489.5772118380108 1508.2708430773582 483.31864218276377Q1497.4579152222836 477.08945548364466 1491.5519410405718 465.7770173743953Q1485.6165839027317 454.46457926514597 1485.6165839027317 439.21482503475534L1485.6165839027317 439.21482503475534Q1485.6165839027317 424.8465594882023 1491.7576217334672 413.4165895544412Q1497.8986595642027 401.98661962068024 1508.6822044631494 395.43422040415396Q1519.4657493620962 388.88182118762774 1533.4226535228586 388.88182118762774L1533.4226535228586 388.88182118762774Q1548.4667270603536 388.88182118762774 1559.1327401347885 395.2285397112585Q1569.8281361653517 401.57525823488936 1575.5284296541681 412.88769634413865Q1581.2581060991124 424.200134453388 1581.2581060991124 439.21482503475534L1581.2581060991124 439.21482503475534Q1581.2581060991124 453.61247353743624 1575.205217136761 465.0424434711973Q1569.1817111305372 476.4430304488304 1558.5156980561023 483.02481262148456Q1547.8203020255391 489.5772118380108 1533.4226535228586 489.5772118380108ZM1535.1268649782778 479.4107090177504L1535.1268649782778 479.4107090177504Q1547.8203020255391 479.4107090177504 1553.9613398562742 468.9503766362107Q1560.1023776870097 458.46066129854313 1560.1023776870097 441.7711422178844L1560.1023776870097 441.7711422178844Q1560.1023776870097 428.636960828704 1556.1650615658687 419.028734174874Q1552.257128400855 409.39112456491614 1545.7047291843292 404.2197242864022Q1539.1523299678029 399.01894105176024 1531.3070806816481 399.01894105176024L1531.3070806816481 399.01894105176024Q1519.054387976305 399.01894105176024 1513.0308819700813 408.97976317912526Q1506.9779930077298 418.9112023503624 1506.9779930077298 434.77799865943933L1506.9779930077298 434.77799865943933Q1506.9779930077298 448.94058351309695 1510.4745647869527 458.9895545088457Q1513.9711365661751 469.0385255045944 1520.3178550898056 474.2393087392364Q1526.6645736134365 479.4107090177504 1535.1268649782778 479.4107090177504Z " fill="#f6b042" transform="matrix(0.5533568110720454,0,0,0.5533568110720454,0,70.47704087199857)"/></g></svg>